<svg id="Layer_1" data-name="Layer 1" xmlns="http://www.w3.org/2000/svg" viewBox="0 0 361.18 208.77">
  <defs>
    <style>
      .cls-1 {
        fill: none;
        stroke: #fff;
        stroke-miterlimit: 10;
        opacity: 0.33;
      }
    </style>
  </defs>
  <path id="starGate" class="cls-1" d="M46,566.8c34.82,65.07,84.55,111,117.46,134.05a4.35,4.35,0,0,0,4.84.19c8.67-4.95,45.56-33.32,52.13-36.92.81-.45,1.81-.38,4,.87l7.73,4.46c2.18,1.25,2.74,2.08,2.76,3,.15,6.39-6.06,52.84-5.86,61.79,0,1.31,0,2.07.05,2.1.72,3,2,3.52,2.39,3.7,48.73,20.47,100.6,36.61,175.24,34.61" transform="rotate(45 50 50)"/>
</svg>
