<svg version="1.2" baseProfile="tiny" xmlns="http://www.w3.org/2000/svg" xmlns:xlink="http://www.w3.org/1999/xlink"
	 x="0px" y="0px" viewBox="0 0 1920 241" overflow="visible" xml:space="preserve">
<path id="player_time-line-base" fill="none" stroke-width="5" stroke-miterlimit="10" d="M-0.2,170.9c0,0,376.5,20,1020,20
	c749.5,0,900-13,900-13"/>
<path id="player_time-line-full" fill="none" stroke-width="5" stroke-miterlimit="10" stroke-dasharray="1920" d="M-0.2,170.9c0,0,376.5,20,1020,20
	c749.5,0,900-13,900-13"/>
<circle id="player_timeline-pointer" cx="1369.3" cy="189.4" r="6"/>
<path id="player_volume-background" d="M1798.3,184.4c-0.5,0-1.1,0-1.6-0.1c-9.3-0.9-16.2-9.2-15.3-18.5c0.1-0.8,8-83.9,8-148.8c0-9.4,7.6-17,17-17
	s17,7.6,17,17c0,66.6-7.8,148.6-8.2,152.1C1814.3,177.8,1806.9,184.4,1798.3,184.4z"/>

<g id="player_button-fullscreen">
	<path d="M1860.1,213.3c-1.9,0-3.5-1.5-3.5-3.5v-6.8c0-1.9,1.5-3.5,3.5-3.5h12.7c1.9,0,3.5,1.5,3.5,3.5
		c0,1.9-1.5,3.5-3.5,3.5h-9.2v3.3C1863.6,211.8,1862,213.3,1860.1,213.3z"/>
	<path d="M1900.5,213.3c-1.9,0-3.5-1.5-3.5-3.5v-3.3h-9.2c-1.9,0-3.5-1.5-3.5-3.5c0-1.9,1.5-3.5,3.5-3.5h12.7
		c1.9,0,3.5,1.5,3.5,3.5v6.8C1904,211.8,1902.4,213.3,1900.5,213.3z"/>
	<path d="M1872.8,234.1h-12.7c-1.9,0-3.5-1.5-3.5-3.5v-6.8c0-1.9,1.5-3.5,3.5-3.5s3.5,1.5,3.5,3.5v3.3h9.2
		c1.9,0,3.5,1.5,3.5,3.5S1874.7,234.1,1872.8,234.1z"/>
	<path d="M1900.5,234.1h-12.7c-1.9,0-3.5-1.5-3.5-3.5s1.5-3.5,3.5-3.5h9.2v-3.3c0-1.9,1.5-3.5,3.5-3.5
		s3.5,1.5,3.5,3.5v6.8C1904,232.6,1902.4,234.1,1900.5,234.1z"/>
</g>

<g id="player_button-exit-fullscreen">
	<path d="M1887.8,234.1c-1.9,0-3.5-1.5-3.5-3.5v-6.8c0-1.9,1.5-3.5,3.5-3.5h12.7c1.9,0,3.5,1.5,3.5,3.5
		s-1.5,3.5-3.5,3.5h-9.2v3.3C1891.3,232.6,1889.7,234.1,1887.8,234.1z"/>
	<path d="M1872.8,234.1c-1.9,0-3.5-1.5-3.5-3.5v-3.3h-9.2c-1.9,0-3.5-1.5-3.5-3.5s1.5-3.5,3.5-3.5h12.7
		c1.9,0,3.5,1.5,3.5,3.5v6.8C1876.3,232.6,1874.7,234.1,1872.8,234.1z"/>
	<path d="M1900.5,213.3h-12.7c-1.9,0-3.5-1.5-3.5-3.5v-6.8c0-1.9,1.5-3.5,3.5-3.5c1.9,0,3.5,1.5,3.5,3.5v3.3h9.2
		c1.9,0,3.5,1.5,3.5,3.5S1902.4,213.3,1900.5,213.3z"/>
	<path d="M1872.8,213.3h-12.7c-1.9,0-3.5-1.5-3.5-3.5s1.5-3.5,3.5-3.5h9.2v-3.3c0-1.9,1.5-3.5,3.5-3.5
		s3.5,1.5,3.5,3.5v6.8C1876.3,211.8,1874.7,213.3,1872.8,213.3z"/>
</g>

<path id="player_button-captions" d="M1697.2,233.5c-1.1,0-2.1-0.4-2.9-1.2c-0.8-0.8-1.2-1.8-1.2-2.9v-25c0-1.1,0.4-2.1,1.2-2.9
	c0.8-0.8,1.8-1.2,2.9-1.2h29.1c1.1,0,2.1,0.4,2.9,1.2c0.8,0.8,1.2,1.8,1.2,2.9v25c0,1.1-0.4,2.1-1.2,2.9c-0.8,0.8-1.8,1.2-2.9,1.2
	H1697.2z M1697.2,229.4h29.1v-25h-29.1V229.4z M1701.4,223.1h6.2c0.6,0,1.1-0.2,1.5-0.6s0.6-0.9,0.6-1.5V219h-3.1v1h-4.2v-6.2h4.2v1
	h3.1v-2.1c0-0.6-0.2-1.1-0.6-1.5c-0.4-0.4-0.9-0.6-1.5-0.6h-6.2c-0.6,0-1.1,0.2-1.5,0.6c-0.4,0.4-0.6,0.9-0.6,1.5v8.3
	c0,0.6,0.2,1.1,0.6,1.5S1700.8,223.1,1701.4,223.1z M1716,223.1h6.2c0.6,0,1.1-0.2,1.5-0.6s0.6-0.9,0.6-1.5V219h-3.1v1h-4.2v-6.2
	h4.2v1h3.1v-2.1c0-0.6-0.2-1.1-0.6-1.5c-0.4-0.4-0.9-0.6-1.5-0.6h-6.2c-0.6,0-1.1,0.2-1.5,0.6c-0.4,0.4-0.6,0.9-0.6,1.5v8.3
	c0,0.6,0.2,1.1,0.6,1.5S1715.4,223.1,1716,223.1z M1697.2,229.4v-25V229.4z"/>

<path id="player_button-volume" d="M1811,216.9c0-2.9-0.8-5.5-2.3-7.9s-3.6-4.2-6.1-5.3c-0.5-0.3-0.9-0.6-1.2-1.2c-0.2-0.5-0.3-1.1-0.1-1.6
	c0.2-0.6,0.6-1,1.2-1.2c0.6-0.3,1.1-0.3,1.7,0c3.4,1.5,6.1,3.8,8.1,6.9c2,3.1,3,6.5,3,10.3s-1,7.2-3,10.3c-2,3.1-4.7,5.4-8.1,6.9
	c-0.6,0.3-1.1,0.3-1.7,0c-0.6-0.3-0.9-0.7-1.2-1.2c-0.2-0.5-0.2-1.1,0.1-1.6s0.6-0.9,1.2-1.2c2.6-1.2,4.6-3,6.1-5.3
	S1811,219.7,1811,216.9z M1785.4,223.6h-6.2c-0.7,0-1.2-0.2-1.7-0.7c-0.5-0.5-0.7-1-0.7-1.7v-8.6c0-0.7,0.2-1.2,0.7-1.7
	c0.5-0.5,1-0.7,1.7-0.7h6.2l7-7c0.8-0.8,1.6-0.9,2.6-0.5c1,0.4,1.5,1.1,1.5,2.2v23.9c0,1.1-0.5,1.8-1.5,2.2c-1,0.4-1.8,0.2-2.6-0.5
	L1785.4,223.6z M1805.9,216.9c0,1.5-0.3,2.9-1,4.2c-0.7,1.3-1.6,2.4-2.7,3.3c-0.4,0.2-0.7,0.2-1.1,0c-0.4-0.2-0.6-0.5-0.6-1v-13.1
	c0-0.4,0.2-0.8,0.6-1c0.4-0.2,0.8-0.2,1.1,0c1.1,0.9,2,2,2.7,3.3C1805.6,214.1,1805.9,215.5,1805.9,216.9z"/>

<g id="GUIvolumeBar">
<path id="player_volume-line-base" fill="none" stroke-width="5" stroke-linecap="round" stroke-miterlimit="10" d="M1798.3,167.4
	c0,0,8.1-83.9,8.1-150.5"/>
<path id="player_volume-line-full" fill="none" stroke-width="5" stroke-linecap="round" stroke-miterlimit="10" d="M1798.3,167.4
	c0,0,8.1-83.9,8.1-150.5"/>
<circle id="player_button-volume-pointer" cx="1804.8" cy="79.9" r="6"/>
</g>

<path id="GUIplay" d="M34.6,198.4c-1.6,3.3-8.2,29.5-6.6,37.7c1.8,9.1,50.9-8.2,47.6-23C74.1,206,39.9,187.8,34.6,198.4z"/>

<g id="GUIpause">
	<path  d="M33.5,240.7c-0.3,0-0.6,0-0.9-0.1c-3.1-0.5-5.3-3.4-4.8-6.6l5.8-36.2c0.5-3.1,3.5-5.3,6.6-4.8
		c3.1,0.5,5.3,3.4,4.8,6.6l-5.8,36.2C38.7,238.7,36.2,240.7,33.5,240.7z"/>
	<path d="M56.4,240.7c-0.3,0-0.6,0-0.9-0.1c-3.1-0.5-5.3-3.4-4.8-6.6l5.8-36.2c0.5-3.1,3.4-5.3,6.6-4.8
		c3.1,0.5,5.3,3.4,4.8,6.6l-5.8,36.2C61.6,238.7,59.2,240.7,56.4,240.7z"/>
</g>

<circle id="player_button-volume-pointer" cx="1804.8" cy="79.9" r="6"/>
<rect id="player_button-play" fill="#ffffff00" x="28.09" y="192.81" width="50" height="48" />
<rect id="player_button-pause" fill="#ffffff00" x="28.09" y="192.81" width="50" height="48" />
</svg>
