<svg version="1.2" baseProfile="tiny" xmlns="http://www.w3.org/2000/svg" xmlns:xlink="http://www.w3.org/1999/xlink"
	 x="0px" y="0px" viewBox="0 0 1920 80" overflow="visible" xml:space="preserve">

<g id="GUIenter">
	<path d="M1860.1,52.4c-1.9,0-3.5-1.5-3.5-3.5v-6.8c0-1.9,1.5-3.5,3.5-3.5h12.7c1.9,0,3.5,1.5,3.5,3.5c0,1.9-1.5,3.5-3.5,3.5h-9.2
		v3.3C1863.6,50.9,1862,52.4,1860.1,52.4z"/>
	<path d="M1900.5,52.4c-1.9,0-3.5-1.5-3.5-3.5v-3.3h-9.2c-1.9,0-3.5-1.5-3.5-3.5c0-1.9,1.5-3.5,3.5-3.5h12.7c1.9,0,3.5,1.5,3.5,3.5
		v6.8C1904,50.9,1902.4,52.4,1900.5,52.4z"/>
	<path d="M1872.8,73.2h-12.7c-1.9,0-3.5-1.5-3.5-3.5v-6.8c0-1.9,1.5-3.5,3.5-3.5s3.5,1.5,3.5,3.5v3.3h9.2c1.9,0,3.5,1.5,3.5,3.5
		S1874.7,73.2,1872.8,73.2z"/>
	<path d="M1900.5,73.2h-12.7c-1.9,0-3.5-1.5-3.5-3.5s1.5-3.5,3.5-3.5h9.2v-3.3c0-1.9,1.5-3.5,3.5-3.5s3.5,1.5,3.5,3.5v6.8
		C1904,71.7,1902.4,73.2,1900.5,73.2z"/>
</g>
<g id="GUIexit">
	<path d="M1887.8,73.2c-1.9,0-3.5-1.5-3.5-3.5v-6.8c0-1.9,1.5-3.5,3.5-3.5h12.7c1.9,0,3.5,1.5,3.5,3.5s-1.5,3.5-3.5,3.5h-9.2v3.3
		C1891.3,71.7,1889.7,73.2,1887.8,73.2z"/>
	<path d="M1872.8,73.2c-1.9,0-3.5-1.5-3.5-3.5v-3.3h-9.2c-1.9,0-3.5-1.5-3.5-3.5s1.5-3.5,3.5-3.5h12.7c1.9,0,3.5,1.5,3.5,3.5v6.8
		C1876.3,71.7,1874.7,73.2,1872.8,73.2z"/>
	<path d="M1900.5,52.4h-12.7c-1.9,0-3.5-1.5-3.5-3.5v-6.8c0-1.9,1.5-3.5,3.5-3.5c1.9,0,3.5,1.5,3.5,3.5v3.3h9.2
		c1.9,0,3.5,1.5,3.5,3.5S1902.4,52.4,1900.5,52.4z"/>
	<path d="M1872.8,52.4h-12.7c-1.9,0-3.5-1.5-3.5-3.5s1.5-3.5,3.5-3.5h9.2v-3.3c0-1.9,1.5-3.5,3.5-3.5s3.5,1.5,3.5,3.5v6.8
		C1876.3,50.9,1874.7,52.4,1872.8,52.4z"/>
</g>
<path id="GUIcc" d="M1697.2,72.6c-1.1,0-2.1-0.4-2.9-1.2s-1.2-1.8-1.2-2.9v-25c0-1.1,0.4-2.1,1.2-2.9c0.8-0.8,1.8-1.2,2.9-1.2h29.1
	c1.1,0,2.1,0.4,2.9,1.2s1.2,1.8,1.2,2.9v25c0,1.1-0.4,2.1-1.2,2.9c-0.8,0.8-1.8,1.2-2.9,1.2H1697.2z M1697.2,68.5h29.1v-25h-29.1
	V68.5z M1701.4,62.2h6.2c0.6,0,1.1-0.2,1.5-0.6s0.6-0.9,0.6-1.5v-2h-3.1v1h-4.2v-6.2h4.2v1h3.1v-2.1c0-0.6-0.2-1.1-0.6-1.5
	s-0.9-0.6-1.5-0.6h-6.2c-0.6,0-1.1,0.2-1.5,0.6c-0.4,0.4-0.6,0.9-0.6,1.5v8.3c0,0.6,0.2,1.1,0.6,1.5S1700.8,62.2,1701.4,62.2z
	 M1716,62.2h6.2c0.6,0,1.1-0.2,1.5-0.6s0.6-0.9,0.6-1.5v-2h-3.1v1h-4.2v-6.2h4.2v1h3.1v-2.1c0-0.6-0.2-1.1-0.6-1.5s-0.9-0.6-1.5-0.6
	h-6.2c-0.6,0-1.1,0.2-1.5,0.6c-0.4,0.4-0.6,0.9-0.6,1.5v8.3c0,0.6,0.2,1.1,0.6,1.5S1715.4,62.2,1716,62.2z M1697.2,68.5v-25V68.5z"
	/>
<path id="GUIvolume" d="M1811,56c0-2.9-0.8-5.5-2.3-7.9s-3.6-4.2-6.1-5.3c-0.5-0.3-0.9-0.6-1.2-1.2c-0.2-0.5-0.3-1.1-0.1-1.6
	c0.2-0.6,0.6-1,1.2-1.2c0.6-0.3,1.1-0.3,1.7,0c3.4,1.5,6.1,3.8,8.1,6.9c2,3.1,3,6.5,3,10.3s-1,7.2-3,10.3s-4.7,5.4-8.1,6.9
	c-0.6,0.3-1.1,0.3-1.7,0s-0.9-0.7-1.2-1.2c-0.2-0.5-0.2-1.1,0.1-1.6s0.6-0.9,1.2-1.2c2.6-1.2,4.6-3,6.1-5.3S1811,58.8,1811,56z
	 M1785.4,62.7h-6.2c-0.7,0-1.2-0.2-1.7-0.7s-0.7-1-0.7-1.7v-8.6c0-0.7,0.2-1.2,0.7-1.7s1-0.7,1.7-0.7h6.2l7-7
	c0.8-0.8,1.6-0.9,2.6-0.5s1.5,1.1,1.5,2.2v23.9c0,1.1-0.5,1.8-1.5,2.2s-1.8,0.2-2.6-0.5L1785.4,62.7z M1805.9,56
	c0,1.5-0.3,2.9-1,4.2s-1.6,2.4-2.7,3.3c-0.4,0.2-0.7,0.2-1.1,0s-0.6-0.5-0.6-1V49.4c0-0.4,0.2-0.8,0.6-1s0.8-0.2,1.1,0
	c1.1,0.9,2,2,2.7,3.3C1805.6,53.2,1805.9,54.6,1805.9,56z"/>
<path id="GUIplay" d="M34.6,37.5C33,40.8,26.4,67,28,75.2c1.8,9.1,50.9-8.2,47.6-23C74.1,45.1,39.9,26.9,34.6,37.5z"/>
<g id="GUIpause">
	<path d="M33.5,79.8c-0.3,0-0.6,0-0.9-0.1c-3.1-0.5-5.3-3.4-4.8-6.6l5.8-36.2c0.5-3.1,3.5-5.3,6.6-4.8s5.3,3.4,4.8,6.6l-5.8,36.2
		C38.7,77.8,36.2,79.8,33.5,79.8z"/>
	<path d="M56.4,79.8c-0.3,0-0.6,0-0.9-0.1c-3.1-0.5-5.3-3.4-4.8-6.6l5.8-36.2c0.5-3.1,3.4-5.3,6.6-4.8c3.1,0.5,5.3,3.4,4.8,6.6
		l-5.8,36.2C61.6,77.8,59.2,79.8,56.4,79.8z"/>
</g>
<path id="player_time-line-base" fill="none" stroke-width="5" stroke-miterlimit="10" d="M-0.2,10c0,0,376.5,20,1020,20 c749.5,0,900-13,900-13"/>
<path id="player_time-line-full" stroke-dasharray="1920" fill="none" stroke-width="5" stroke-miterlimit="10" d="M-0.2,10c0,0,376.5,20,1020,20 c749.5,0,900-13,900-13"/>
<circle id="player_timeline-pointer" cx="1369.3" cy="28.5" r="8"/>
<rect id="player_button-play" fill="#ffffff00" x="28.1" y="32" width="50" height="48"/>
<rect id="player_button-pause" fill="#ffffff00" x="28.1" y="32" width="50" height="48"/>
<rect id="player_button-volume" fill="#ffffff00" x="1772.2" y="31.6" width="50" height="48"/>
<rect id="player_button-cc" fill="#ffffff00" x="1686.8" y="31.6" width="50" height="48"/>
<rect id="player_button-enter-fscreen" fill="#ffffff00" x="1855.2" y="31.8" width="50" height="48"/>
<rect id="player_button-exit-fscreen" fill="#ffffff00" x="1855.2" y="31.8" width="50" height="48"/>
</svg>
