<svg version="1.1" id="Layer_1" xmlns="http://www.w3.org/2000/svg" xmlns:xlink="http://www.w3.org/1999/xlink" x="0px" y="0px" viewBox="0 0 48 48" style="enable-background:new 0 0 48 48;" xml:space="preserve"> <path d="M12.9,33.2c1.5-1.2,3.2-2.1,5.1-2.8c1.9-0.7,3.9-1,5.9-1s4,0.3,5.9,1c1.9,0.7,3.6,1.6,5.1,2.8c1-1.2,1.9-2.6,2.5-4.2 c0.6-1.6,0.9-3.2,0.9-5c0-4-1.4-7.4-4.2-10.2S28,9.6,24,9.6s-7.4,1.4-10.2,4.2S9.6,20,9.6,24c0,1.8,0.3,3.4,0.9,5 C11.1,30.5,11.9,31.9,12.9,33.2z M24,25.8c-1.8,0-3.3-0.6-4.5-1.8c-1.2-1.2-1.8-2.7-1.8-4.5s0.6-3.3,1.8-4.5 c1.2-1.2,2.7-1.8,4.5-1.8s3.3,0.6,4.5,1.8c1.2,1.2,1.8,2.7,1.8,4.5s-0.6,3.3-1.8,4.5C27.2,25.2,25.8,25.8,24,25.8z M24,42 c-2.5,0-4.8-0.5-7-1.4s-4.1-2.2-5.7-3.8S8.4,33.2,7.4,31S6,26.5,6,24s0.5-4.8,1.4-7s2.2-4.1,3.8-5.7s3.5-2.9,5.7-3.8S21.5,6,24,6 s4.8,0.5,7,1.4s4.1,2.2,5.7,3.8s2.9,3.5,3.8,5.7s1.4,4.5,1.4,7s-0.5,4.8-1.4,7s-2.2,4.1-3.8,5.7s-3.5,2.9-5.7,3.8S26.5,42,24,42z"/> </svg>