<svg version="1.1" id="Layer_1" xmlns="http://www.w3.org/2000/svg" xmlns:xlink="http://www.w3.org/1999/xlink" x="0px" y="0px" viewBox="0 0 48 48" enable-background="new 0 0 48 48" xml:space="preserve"> <path d="M14,33.8h8v-8h-8V33.8z M26,33.8h8v-8h-8V33.8z M14,21.8h8v-8h-8V21.8z M26,21.8h8v-8h-8V21.8z M10,41.7 c-1.1,0-2-0.4-2.8-1.2S6,38.8,6,37.7V9.8c0-1.1,0.4-2,1.2-2.8S8.9,5.8,10,5.8h27.9c1.1,0,2,0.4,2.8,1.2c0.8,0.8,1.2,1.7,1.2,2.8 v27.9c0,1.1-0.4,2-1.2,2.8c-0.8,0.8-1.7,1.2-2.8,1.2H10z"/> </svg>