<svg xmlns="http://www.w3.org/2000/svg" height="48" width="48"><path d="M24,22c5.4,0,9.7-0.8,13-2.5c3.3-1.6,5-3.5,5-5.6c0-2.1-1.7-4-5-5.6S29.4,6,24,6s-9.7,0.8-13,2.4S6,11.9,6,14 c0,2.1,1.7,3.9,5,5.6C14.3,21.2,18.6,22,24,22z M24,27c1.7,0,3.5-0.1,5.6-0.4s4-0.7,5.9-1.3c1.8-0.6,3.4-1.4,4.6-2.3 c1.2-0.9,1.9-2.1,1.9-3.4v5c0,1.3-0.6,2.5-1.9,3.4c-1.2,1-2.8,1.7-4.6,2.3c-1.9,0.6-3.8,1-5.9,1.3S25.7,32,24,32 c-1.6,0-3.5-0.1-5.6-0.4s-4.1-0.7-5.9-1.3c-1.9-0.6-3.4-1.4-4.7-2.4c-1.2-1-1.9-2.1-1.9-3.4v-5c0,1.3,0.6,2.4,1.9,3.4 c1.2,0.9,2.8,1.7,4.7,2.4c1.8,0.6,3.8,1.1,5.9,1.3S22.4,27,24,27z M24,37c1.7,0,3.5-0.1,5.6-0.4s4-0.7,5.9-1.3 c1.8-0.6,3.4-1.4,4.6-2.3c1.2-0.9,1.9-2.1,1.9-3.4v5c0,1.3-0.6,2.5-1.9,3.4s-2.8,1.7-4.6,2.3c-1.9,0.6-3.8,1-5.9,1.3S25.7,42,24,42 c-1.6,0-3.5-0.1-5.6-0.4s-4.1-0.7-5.9-1.4c-1.9-0.6-3.4-1.4-4.7-2.3S6,35.8,6,34.5v-5c0,1.3,0.6,2.4,1.9,3.4s2.8,1.7,4.7,2.3 c1.8,0.6,3.8,1.1,5.9,1.4S22.4,37,24,37z"/></svg>