<svg version="1.1" id="Layer_1" xmlns="http://www.w3.org/2000/svg" xmlns:xlink="http://www.w3.org/1999/xlink" x="0px" y="0px" viewBox="0 0 48 48" enable-background="new 0 0 48 48" xml:space="preserve"> <path d="M15,37c-2.5,0-4.6-0.9-6.3-2.6S6,30.6,6,28.1c0-2.1,0.6-4,1.9-5.7c1.3-1.7,3-2.7,5-3.2c0.6-2.2,1.8-4.1,3.5-5.6 c1.7-1.5,3.7-2.4,5.9-2.7v13.2l-2.6-2.5l-2.3,2.3l6.5,6.5l6.5-6.5l-2.3-2.3l-2.6,2.5V11c2.8,0.4,5.1,1.6,7,3.8 c1.9,2.1,2.8,4.6,2.8,7.5c1.9,0.2,3.4,1,4.7,2.4c1.2,1.4,1.9,3,1.9,4.9c0,2-0.7,3.8-2.1,5.2c-1.4,1.4-3.2,2.1-5.2,2.1H15z"/> </svg>