<svg version="1.1" id="Layer_1" xmlns="http://www.w3.org/2000/svg" xmlns:xlink="http://www.w3.org/1999/xlink" x="0px" y="0px" viewBox="0 0 48 48" enable-background="new 0 0 48 48" xml:space="preserve"> <path d="M24.4,33c0.5,0,0.9-0.2,1.3-0.5c0.3-0.3,0.5-0.8,0.5-1.3c0-0.5-0.2-0.9-0.5-1.3s-0.8-0.5-1.3-0.5s-0.9,0.2-1.3,0.5 s-0.5,0.8-0.5,1.3c0,0.5,0.2,0.9,0.5,1.3C23.5,32.8,23.9,33,24.4,33z M22.6,25.8h3.6V15h-3.6V25.8z M24.4,42c-2.5,0-4.8-0.5-7-1.4 s-4.1-2.2-5.7-3.8S8.8,33.2,7.8,31s-1.4-4.5-1.4-7s0.5-4.8,1.4-7s2.2-4.1,3.8-5.7s3.5-2.9,5.7-3.8s4.5-1.4,7-1.4s4.8,0.5,7,1.4 s4.1,2.2,5.7,3.8c1.6,1.6,2.9,3.5,3.8,5.7c0.9,2.2,1.4,4.5,1.4,7S42,28.8,41,31c-0.9,2.2-2.2,4.1-3.8,5.7c-1.6,1.6-3.5,2.9-5.7,3.8 S26.9,42,24.4,42z"/> </svg>