<svg version="1.1" id="Layer_1" xmlns="http://www.w3.org/2000/svg" xmlns:xlink="http://www.w3.org/1999/xlink" x="0px" y="0px" viewBox="0 0 48 48" enable-background="new 0 0 48 48" xml:space="preserve"> <path d="M24.4,31.6c2,0,3.8-0.7,5.2-2.1s2.1-3.2,2.1-5.2s-0.7-3.8-2.1-5.2s-3.2-2.1-5.2-2.1s-3.8,0.7-5.2,2.1s-2.1,3.2-2.1,5.2 s0.7,3.8,2.1,5.2S22.4,31.6,24.4,31.6z M24.4,28.7c-1.2,0-2.3-0.4-3.1-1.3S20,25.5,20,24.3c0-1.2,0.4-2.3,1.3-3.1s1.9-1.3,3.1-1.3 c1.2,0,2.3,0.4,3.1,1.3s1.3,1.9,1.3,3.1c0,1.2-0.4,2.3-1.3,3.1S25.7,28.7,24.4,28.7z M24.4,36.5c-4,0-7.6-1.1-10.9-3.3 S7.9,28,6.4,24.3c1.5-3.7,3.8-6.7,7.1-8.9S20.4,12,24.4,12s7.6,1.1,10.9,3.3s5.6,5.2,7.1,8.9C41,28,38.6,31,35.3,33.2 S28.4,36.5,24.4,36.5z"/> </svg>