<svg version="1.1" id="Layer_1" xmlns="http://www.w3.org/2000/svg" xmlns:xlink="http://www.w3.org/1999/xlink" x="0px" y="0px" viewBox="0 0 48 48" enable-background="new 0 0 48 48" xml:space="preserve"> <path d="M10,38.4c-1,0-1.8-0.4-2.5-1.1c-0.7-0.7-1.1-1.6-1.1-2.5V13.2c0-1,0.4-1.8,1.1-2.5S9,9.6,10,9.6h10.8l3.6,3.6h14.4 c1,0,1.8,0.4,2.5,1.1c0.7,0.7,1.1,1.6,1.1,2.5v18c0,1-0.4,1.8-1.1,2.5c-0.7,0.7-1.6,1.1-2.5,1.1H10z M24.8,27.6l-2.9,2.9l2.5,2.5 l7.2-7.2l-7.2-7.2l-2.5,2.5l2.9,2.9h-7.6v3.6H24.8z"/> </svg>