<svg version="1.1" id="Layer_1" xmlns="http://www.w3.org/2000/svg" xmlns:xlink="http://www.w3.org/1999/xlink" x="0px" y="0px" viewBox="0 0 48 48" enable-background="new 0 0 48 48" xml:space="preserve"> <path d="M9.7,36.9c-0.9,0-1.7-0.3-2.3-1s-1-1.4-1-2.3V17.4c0-0.9,0.3-1.7,1-2.3c0.6-0.6,1.4-1,2.3-1H26c0.9,0,1.7,0.3,2.3,1 c0.6,0.6,1,1.4,1,2.3v16.3c0,0.9-0.3,1.7-1,2.3c-0.6,0.6-1.4,1-2.3,1H9.7z M34.1,23.9c-0.5,0-0.8-0.2-1.2-0.5 c-0.3-0.3-0.5-0.7-0.5-1.2v-6.5c0-0.5,0.2-0.8,0.5-1.2c0.3-0.3,0.7-0.5,1.2-0.5h6.5c0.5,0,0.8,0.2,1.2,0.5c0.3,0.3,0.5,0.7,0.5,1.2 v6.5c0,0.5-0.2,0.8-0.5,1.2c-0.3,0.3-0.7,0.5-1.2,0.5H34.1z M11.3,30.4h13l-4.3-5.7L17,28.8l-2.2-3L11.3,30.4z M34.1,36.9 c-0.5,0-0.8-0.2-1.2-0.5c-0.3-0.3-0.5-0.7-0.5-1.2v-6.5c0-0.5,0.2-0.8,0.5-1.2c0.3-0.3,0.7-0.5,1.2-0.5h6.5c0.5,0,0.8,0.2,1.2,0.5 c0.3,0.3,0.5,0.7,0.5,1.2v6.5c0,0.5-0.2,0.8-0.5,1.2c-0.3,0.3-0.7,0.5-1.2,0.5H34.1z"/> </svg>