<svg version="1.1" id="Layer_1" xmlns="http://www.w3.org/2000/svg" xmlns:xlink="http://www.w3.org/1999/xlink" x="0px" y="0px" viewBox="0 0 48 48" enable-background="new 0 0 48 48" xml:space="preserve"> <path d="M10.4,41.9h5.3v-9.3H6.4V38c0,1.1,0.4,2,1.2,2.8S9.3,41.9,10.4,41.9z M19.7,41.9H29v-9.3h-9.3V41.9z M33,41.9h5.3 c1.1,0,2-0.4,2.8-1.2c0.8-0.8,1.2-1.7,1.2-2.8v-5.3H33V41.9z M6.4,28.6h9.3v-9.3H6.4V28.6z M19.7,28.6H29v-9.3h-9.3V28.6z M33,28.6 h9.3v-9.3H33V28.6z M6.4,15.4h9.3V6.1h-5.3c-1.1,0-2,0.4-2.8,1.2S6.4,9,6.4,10V15.4z M19.7,15.4H29V6.1h-9.3V15.4z M33,15.4h9.3V10 c0-1.1-0.4-2-1.2-2.8c-0.8-0.8-1.7-1.2-2.8-1.2H33V15.4z"/> </svg>