<svg version="1.1" id="Layer_1" xmlns="http://www.w3.org/2000/svg" xmlns:xlink="http://www.w3.org/1999/xlink" x="0px" y="0px" viewBox="0 0 48 48" enable-background="new 0 0 48 48" xml:space="preserve"> <path d="M37.1,40.4l-6.8-6.8c-1,0.3-1.9,0.5-2.9,0.7c-1,0.1-2,0.2-3,0.2c-4.1,0-7.8-1.1-11-3.4s-5.5-5.2-7-8.8 c0.6-1.4,1.3-2.8,2.2-4s1.9-2.3,3-3.3l-4.5-4.6l2.3-2.3l30,30L37.1,40.4z M24.4,29.7c0.3,0,0.6,0,0.8,0c0.3,0,0.5-0.1,0.8-0.2 l-8.8-8.8c-0.1,0.3-0.1,0.6-0.2,0.8s0,0.5,0,0.8c0,2,0.7,3.8,2.1,5.2S22.3,29.7,24.4,29.7z M36.3,30.4l-5.2-5.1 c0.2-0.5,0.3-0.9,0.4-1.4c0.1-0.5,0.2-1,0.2-1.5c0-2-0.7-3.8-2.1-5.2c-1.4-1.4-3.2-2.1-5.2-2.1c-0.5,0-1.1,0.1-1.5,0.2 c-0.5,0.1-0.9,0.3-1.4,0.5l-4.2-4.2c1.1-0.5,2.3-0.8,3.4-1s2.4-0.3,3.7-0.3c4.1,0,7.8,1.1,11,3.4s5.5,5.2,7,8.8 c-0.6,1.6-1.4,3.1-2.5,4.5C38.8,28.2,37.6,29.4,36.3,30.4z M28.7,22.9L23.8,18c0.8-0.1,1.5-0.1,2.1,0.2c0.6,0.3,1.2,0.6,1.7,1.1 s0.8,1.1,1,1.7C28.8,21.6,28.8,22.3,28.7,22.9z"/> </svg>