<svg version="1.1" id="Layer_1" xmlns="http://www.w3.org/2000/svg" xmlns:xlink="http://www.w3.org/1999/xlink" x="0px" y="0px" viewBox="0 0 48 48" enable-background="new 0 0 48 48" xml:space="preserve"> <path d="M18.6,38.4h19.8c1,0,1.8-0.4,2.5-1.1c0.7-0.7,1.1-1.6,1.1-2.5v-3.6H18.6V38.4z M6,16.8h9V9.6H9.6c-1,0-1.8,0.4-2.5,1.1 S6,12.2,6,13.2V16.8z M6,27.6h9v-7.2H6V27.6z M9.6,38.4H15v-7.2H6v3.6c0,1,0.4,1.8,1.1,2.5C7.8,38,8.6,38.4,9.6,38.4z M18.6,27.6H42 v-7.2H18.6V27.6z M18.6,16.8H42v-3.6c0-1-0.4-1.8-1.1-2.5c-0.7-0.7-1.6-1.1-2.5-1.1H18.6V16.8z"/> </svg>