<svg version="1.1" id="Layer_1" xmlns="http://www.w3.org/2000/svg" xmlns:xlink="http://www.w3.org/1999/xlink" x="0px" y="0px" viewBox="0 0 48 48" style="enable-background:new 0 0 48 48;" xml:space="preserve"> <path d="M24,38.4c-1,0-1.8-0.4-2.5-1.1c-0.7-0.7-1.1-1.6-1.1-2.5c0-1,0.4-1.8,1.1-2.5c0.7-0.7,1.6-1.1,2.5-1.1s1.8,0.4,2.5,1.1 c0.7,0.7,1.1,1.6,1.1,2.5c0,1-0.4,1.8-1.1,2.5C25.8,38,25,38.4,24,38.4z M24,27.6c-1,0-1.8-0.4-2.5-1.1S20.4,25,20.4,24 c0-1,0.4-1.8,1.1-2.5c0.7-0.7,1.6-1.1,2.5-1.1s1.8,0.4,2.5,1.1c0.7,0.7,1.1,1.6,1.1,2.5c0,1-0.4,1.8-1.1,2.5 C25.8,27.2,25,27.6,24,27.6z M24,16.8c-1,0-1.8-0.4-2.5-1.1c-0.7-0.7-1.1-1.6-1.1-2.5s0.4-1.8,1.1-2.5S23,9.6,24,9.6 s1.8,0.4,2.5,1.1c0.7,0.7,1.1,1.6,1.1,2.5s-0.4,1.8-1.1,2.5C25.8,16.4,25,16.8,24,16.8z"/> </svg>