<svg xmlns="http://www.w3.org/2000/svg" height="48" width="48"><path d="M33.2,42c-0.8,0-1.5-0.3-2.1-0.9c-0.6-0.6-0.9-1.3-0.9-2.1v-3.2h-4.7c-0.8,0-1.5-0.3-2.1-0.9c-0.6-0.6-0.9-1.3-0.9-2.1V15.2 h-4.6v3.5c0,0.8-0.3,1.5-0.9,2.1s-1.3,0.9-2.1,0.9H7c-0.8,0-1.5-0.3-2.1-0.9S4,19.6,4,18.8V9c0-0.8,0.3-1.5,0.9-2.1S6.2,6,7,6h7.9 c0.8,0,1.5,0.3,2.1,0.9s0.9,1.3,0.9,2.1v3.2h12.4V9c0-0.8,0.3-1.5,0.9-2.1C31.7,6.3,32.4,6,33.2,6H41c0.8,0,1.5,0.3,2.1,0.9 C43.7,7.5,44,8.2,44,9v9.8c0,0.8-0.3,1.5-0.9,2.1c-0.6,0.6-1.3,0.9-2.1,0.9h-7.8c-0.8,0-1.5-0.3-2.1-0.9c-0.6-0.6-0.9-1.3-0.9-2.1 v-3.5h-4.7v17.5h4.7v-3.5c0-0.8,0.3-1.5,0.9-2.1c0.6-0.6,1.3-0.9,2.1-0.9H41c0.8,0,1.5,0.3,2.1,0.9c0.6,0.6,0.9,1.3,0.9,2.1V39 c0,0.8-0.3,1.5-0.9,2.1C42.5,41.7,41.8,42,41,42H33.2z"/></svg>