<svg version="1.1" id="Layer_1" xmlns="http://www.w3.org/2000/svg" xmlns:xlink="http://www.w3.org/1999/xlink" x="0px" y="0px" viewBox="0 0 48 48" enable-background="new 0 0 48 48" xml:space="preserve"> <path d="M11,35.4v-3.2h3.2V20.8c0-2.2,0.7-4.2,2-6s3.1-2.9,5.3-3.4v-1.1c0-0.7,0.2-1.3,0.7-1.7s1-0.7,1.7-0.7s1.3,0.2,1.7,0.7 c0.5,0.5,0.7,1,0.7,1.7v1.1c2.2,0.5,3.9,1.7,5.3,3.4c1.4,1.7,2,3.7,2,6v11.4H37v3.2H11z M24,40.2c-0.9,0-1.7-0.3-2.3-1 c-0.6-0.6-1-1.4-1-2.3h6.5c0,0.9-0.3,1.7-1,2.3C25.7,39.9,24.9,40.2,24,40.2z"/> </svg>