<svg version="1.2" baseProfile="tiny" id="Layer_1" xmlns="http://www.w3.org/2000/svg" xmlns:xlink="http://www.w3.org/1999/xlink" x="0px" y="0px" viewBox="0 0 48 48" overflow="visible" xml:space="preserve"> <g> <path d="M32.6,39.4L32.6,39.4c-2.1,0-3.8-1.7-3.8-3.8V12.4c0-2.1,1.7-3.8,3.8-3.8h0c2.1,0,3.8,1.7,3.8,3.8v23.2 C36.4,37.7,34.7,39.4,32.6,39.4z"/> <path d="M15.4,39.4L15.4,39.4c-2.1,0-3.8-1.7-3.8-3.8V12.4c0-2.1,1.7-3.8,3.8-3.8h0c2.1,0,3.8,1.7,3.8,3.8v23.2 C19.2,37.7,17.5,39.4,15.4,39.4z"/> </g> </svg>