<svg version="1.0" id="Layer_1" xmlns="http://www.w3.org/2000/svg" xmlns:xlink="http://www.w3.org/1999/xlink" x="0px" y="0px" width="48px" height="48px" viewBox="0 0 48 48" enable-background="new 0 0 48 48" xml:space="preserve"> <path d="M10.3,38.8V8.6c0-0.8,0.3-1.5,0.9-2.1c0.6-0.6,1.3-0.8,2-0.8c0.2,0,0.5,0,0.8,0.1c0.3,0.1,0.5,0.2,0.8,0.3l23.8,15.1 c0.4,0.3,0.8,0.7,1,1.1c0.2,0.4,0.3,0.9,0.3,1.4s-0.1,0.9-0.3,1.4c-0.2,0.4-0.5,0.8-1,1.1L14.8,41.3c-0.2,0.1-0.5,0.3-0.8,0.3 c-0.3,0.1-0.5,0.1-0.8,0.1c-0.8,0-1.5-0.3-2-0.8C10.6,40.3,10.3,39.6,10.3,38.8z"/> </svg>