<svg version="1.1" id="Layer_1" xmlns="http://www.w3.org/2000/svg" xmlns:xlink="http://www.w3.org/1999/xlink" x="0px" y="0px" viewBox="0 0 48 48" enable-background="new 0 0 48 48" xml:space="preserve"> <path d="M19,41.9l-0.7-5.7c-0.4-0.1-0.8-0.3-1.1-0.5c-0.3-0.2-0.7-0.4-1-0.7l-5.3,2.2L6,28.7l4.6-3.5c0-0.2,0-0.4,0-0.6v-1.2 c0-0.2,0-0.4,0-0.6L6,19.3l4.9-8.5l5.3,2.2c0.3-0.2,0.7-0.5,1-0.7s0.7-0.4,1.1-0.5L19,6.1h9.8l0.7,5.7c0.4,0.1,0.8,0.3,1.1,0.5 s0.7,0.4,1,0.7l5.3-2.2l4.9,8.5l-4.6,3.5c0,0.2,0,0.4,0,0.6v1.2c0,0.2,0,0.4-0.1,0.6l4.6,3.5L37,37.2l-5.3-2.2 c-0.3,0.2-0.7,0.5-1,0.7c-0.4,0.2-0.7,0.4-1.1,0.5l-0.7,5.7H19z M24.1,30.3c1.7,0,3.2-0.6,4.4-1.8s1.8-2.7,1.8-4.4 c0-1.7-0.6-3.2-1.8-4.4s-2.7-1.8-4.4-1.8c-1.8,0-3.2,0.6-4.4,1.8c-1.2,1.2-1.8,2.7-1.8,4.4c0,1.7,0.6,3.2,1.8,4.4 C20.8,29.6,22.3,30.3,24.1,30.3z"/> </svg>