<svg version="1.2" baseProfile="tiny" id="Layer_1" xmlns="http://www.w3.org/2000/svg" xmlns:xlink="http://www.w3.org/1999/xlink" x="0px" y="0px" viewBox="0 0 48 48" overflow="visible" xml:space="preserve"> <path d="M22.4,37.1H15c-2.5,0-4.6-0.9-6.4-2.6S6,30.7,6,28.2c0-2.1,0.6-4,1.9-5.7s3-2.7,5-3.2c0.7-2.5,2-4.5,4.1-6.1s4.4-2.3,7-2.3 c3.2,0,5.9,1.1,8.1,3.3s3.3,4.9,3.3,8.1c1.9,0.2,3.4,1,4.7,2.4c1.2,1.4,1.9,3,1.9,4.9c0,2-0.7,3.8-2.1,5.2c-1.4,1.4-3.2,2.1-5.2,2.1 h-9V25.4l2.6,2.5l2.3-2.3L24,19.1l-6.5,6.5l2.3,2.3l2.6-2.5V37.1z"/> </svg>