<svg xmlns="http://www.w3.org/2000/svg"><symbol id="account" xmlns="http://www.w3.org/2000/svg"> <path d="M12.9,33.2c1.5-1.2,3.2-2.1,5.1-2.8c1.9-0.7,3.9-1,5.9-1s4,0.3,5.9,1c1.9,0.7,3.6,1.6,5.1,2.8c1-1.2,1.9-2.6,2.5-4.2 c0.6-1.6,0.9-3.2,0.9-5c0-4-1.4-7.4-4.2-10.2S28,9.6,24,9.6s-7.4,1.4-10.2,4.2S9.6,20,9.6,24c0,1.8,0.3,3.4,0.9,5 C11.1,30.5,11.9,31.9,12.9,33.2z M24,25.8c-1.8,0-3.3-0.6-4.5-1.8c-1.2-1.2-1.8-2.7-1.8-4.5s0.6-3.3,1.8-4.5 c1.2-1.2,2.7-1.8,4.5-1.8s3.3,0.6,4.5,1.8c1.2,1.2,1.8,2.7,1.8,4.5s-0.6,3.3-1.8,4.5C27.2,25.2,25.8,25.8,24,25.8z M24,42 c-2.5,0-4.8-0.5-7-1.4s-4.1-2.2-5.7-3.8S8.4,33.2,7.4,31S6,26.5,6,24s0.5-4.8,1.4-7s2.2-4.1,3.8-5.7s3.5-2.9,5.7-3.8S21.5,6,24,6 s4.8,0.5,7,1.4s4.1,2.2,5.7,3.8s2.9,3.5,3.8,5.7s1.4,4.5,1.4,7s-0.5,4.8-1.4,7s-2.2,4.1-3.8,5.7s-3.5,2.9-5.7,3.8S26.5,42,24,42z"/> </symbol><symbol id="add" xmlns="http://www.w3.org/2000/svg"><path d="M22.5 38V25.5H10v-3h12.5V10h3v12.5H38v3H25.5V38Z"/></symbol><symbol id="arrow_forward_" xmlns="http://www.w3.org/2000/svg"> <path d="M33.3,26H6v-4.5h27.3L20.8,9L24,5.8l18,18l-18,18l-3.2-3.1L33.3,26z"/> </symbol><symbol id="back" xmlns="http://www.w3.org/2000/svg"> <path d="M14.6,26l12.6,12.6L24,41.7l-18-18l18-18L27.2,9L14.6,21.5h27.3V26H14.6z"/> </symbol><symbol id="close" xmlns="http://www.w3.org/2000/svg"><path d="m12.45 37.65-2.1-2.1L21.9 24 10.35 12.45l2.1-2.1L24 21.9l11.55-11.55 2.1 2.1L26.1 24l11.55 11.55-2.1 2.1L24 26.1Z"/></symbol><symbol id="delete" xmlns="http://www.w3.org/2000/svg"> <path d="M14,41.7c-1.1,0-2-0.4-2.8-1.2c-0.8-0.8-1.2-1.7-1.2-2.8V11.8H8v-4h10v-2h12v2h10v4h-2v25.9c0,1.1-0.4,2-1.2,2.8 c-0.8,0.8-1.7,1.2-2.8,1.2H14z M18,33.8h4v-18h-4V33.8z M26,33.8h4v-18h-4V33.8z"/> </symbol><symbol id="done" xmlns="http://www.w3.org/2000/svg"><path d="M18.9 35.7 7.7 24.5l2.15-2.15 9.05 9.05 19.2-19.2 2.15 2.15Z"/></symbol><symbol id="doubled" xmlns="http://www.w3.org/2000/svg"> <path d="M33,22.52,12.16,10.36a3.43,3.43,0,0,0-5.15,3V37.45a3.42,3.42,0,0,0,5.13,3L33,28.45A3.42,3.42,0,0,0,33,22.52Z" transform="translate(-7.01 -9.89)"/> <path d="M44,22.52,23.07,10.36a3.43,3.43,0,0,0-5.15,3V37.45a3.43,3.43,0,0,0,5.13,3l20.88-12A3.43,3.43,0,0,0,44,22.52Z" transform="translate(-7.01 -9.89)"/> </symbol><symbol id="edit" xmlns="http://www.w3.org/2000/svg"> <path d="M9,39.2V32L31.2,9.8c0.3-0.3,0.7-0.5,1.1-0.7c0.4-0.2,0.8-0.3,1.3-0.3c0.4,0,0.9,0.1,1.3,0.3c0.4,0.2,0.8,0.4,1.1,0.8 l2.3,2.4c0.3,0.3,0.6,0.7,0.7,1.1c0.2,0.4,0.2,0.8,0.2,1.3c0,0.4-0.1,0.9-0.2,1.3c-0.2,0.4-0.4,0.8-0.7,1.1L16.1,39.2H9z M33.6,16.9 l2.4-2.4l-2.4-2.4l-2.4,2.4L33.6,16.9z"/> </symbol><symbol id="error" xmlns="http://www.w3.org/2000/svg"> <path d="M24.4,33c0.5,0,0.9-0.2,1.3-0.5c0.3-0.3,0.5-0.8,0.5-1.3c0-0.5-0.2-0.9-0.5-1.3s-0.8-0.5-1.3-0.5s-0.9,0.2-1.3,0.5 s-0.5,0.8-0.5,1.3c0,0.5,0.2,0.9,0.5,1.3C23.5,32.8,23.9,33,24.4,33z M22.6,25.8h3.6V15h-3.6V25.8z M24.4,42c-2.5,0-4.8-0.5-7-1.4 s-4.1-2.2-5.7-3.8S8.8,33.2,7.8,31s-1.4-4.5-1.4-7s0.5-4.8,1.4-7s2.2-4.1,3.8-5.7s3.5-2.9,5.7-3.8s4.5-1.4,7-1.4s4.8,0.5,7,1.4 s4.1,2.2,5.7,3.8c1.6,1.6,2.9,3.5,3.8,5.7c0.9,2.2,1.4,4.5,1.4,7S42,28.8,41,31c-0.9,2.2-2.2,4.1-3.8,5.7c-1.6,1.6-3.5,2.9-5.7,3.8 S26.9,42,24.4,42z"/> </symbol><symbol id="expand-left" xmlns="http://www.w3.org/2000/svg"><path d="M28.05 36 16 23.95 28.05 11.9l2.15 2.15-9.9 9.9 9.9 9.9Z"/></symbol><symbol id="expand-less" xmlns="http://www.w3.org/2000/svg"><path d="M14.15 30.75 12 28.6l12-12 12 11.95-2.15 2.15L24 20.85Z"/></symbol><symbol id="expand-more" xmlns="http://www.w3.org/2000/svg"><path d="m24 30.75-12-12 2.15-2.15L24 26.5l9.85-9.85L36 18.8Z"/></symbol><symbol id="expand-right" xmlns="http://www.w3.org/2000/svg"><path d="m18.75 36-2.15-2.15 9.9-9.9-9.9-9.9 2.15-2.15L30.8 23.95Z"/></symbol><symbol id="eye" xmlns="http://www.w3.org/2000/svg"> <path d="M24.4,31.6c2,0,3.8-0.7,5.2-2.1s2.1-3.2,2.1-5.2s-0.7-3.8-2.1-5.2s-3.2-2.1-5.2-2.1s-3.8,0.7-5.2,2.1s-2.1,3.2-2.1,5.2 s0.7,3.8,2.1,5.2S22.4,31.6,24.4,31.6z M24.4,28.7c-1.2,0-2.3-0.4-3.1-1.3S20,25.5,20,24.3c0-1.2,0.4-2.3,1.3-3.1s1.9-1.3,3.1-1.3 c1.2,0,2.3,0.4,3.1,1.3s1.3,1.9,1.3,3.1c0,1.2-0.4,2.3-1.3,3.1S25.7,28.7,24.4,28.7z M24.4,36.5c-4,0-7.6-1.1-10.9-3.3 S7.9,28,6.4,24.3c1.5-3.7,3.8-6.7,7.1-8.9S20.4,12,24.4,12s7.6,1.1,10.9,3.3s5.6,5.2,7.1,8.9C41,28,38.6,31,35.3,33.2 S28.4,36.5,24.4,36.5z"/> </symbol><symbol id="hide" xmlns="http://www.w3.org/2000/svg"> <path d="M37.1,40.4l-6.8-6.8c-1,0.3-1.9,0.5-2.9,0.7c-1,0.1-2,0.2-3,0.2c-4.1,0-7.8-1.1-11-3.4s-5.5-5.2-7-8.8 c0.6-1.4,1.3-2.8,2.2-4s1.9-2.3,3-3.3l-4.5-4.6l2.3-2.3l30,30L37.1,40.4z M24.4,29.7c0.3,0,0.6,0,0.8,0c0.3,0,0.5-0.1,0.8-0.2 l-8.8-8.8c-0.1,0.3-0.1,0.6-0.2,0.8s0,0.5,0,0.8c0,2,0.7,3.8,2.1,5.2S22.3,29.7,24.4,29.7z M36.3,30.4l-5.2-5.1 c0.2-0.5,0.3-0.9,0.4-1.4c0.1-0.5,0.2-1,0.2-1.5c0-2-0.7-3.8-2.1-5.2c-1.4-1.4-3.2-2.1-5.2-2.1c-0.5,0-1.1,0.1-1.5,0.2 c-0.5,0.1-0.9,0.3-1.4,0.5l-4.2-4.2c1.1-0.5,2.3-0.8,3.4-1s2.4-0.3,3.7-0.3c4.1,0,7.8,1.1,11,3.4s5.5,5.2,7,8.8 c-0.6,1.6-1.4,3.1-2.5,4.5C38.8,28.2,37.6,29.4,36.3,30.4z M28.7,22.9L23.8,18c0.8-0.1,1.5-0.1,2.1,0.2c0.6,0.3,1.2,0.6,1.7,1.1 s0.8,1.1,1,1.7C28.8,21.6,28.8,22.3,28.7,22.9z"/> </symbol><symbol id="info" xmlns="http://www.w3.org/2000/svg"><path d="M12 0c-6.627 0-12 5.373-12 12s5.373 12 12 12 12-5.373 12-12-5.373-12-12-12zm1 18h-2v-6h-2v-2h4v8zm-1-9.75c-.69 0-1.25-.56-1.25-1.25s.56-1.25 1.25-1.25 1.25.56 1.25 1.25-.56 1.25-1.25 1.25z"/></symbol><symbol id="more" xmlns="http://www.w3.org/2000/svg"> <path d="M24,38.4c-1,0-1.8-0.4-2.5-1.1c-0.7-0.7-1.1-1.6-1.1-2.5c0-1,0.4-1.8,1.1-2.5c0.7-0.7,1.6-1.1,2.5-1.1s1.8,0.4,2.5,1.1 c0.7,0.7,1.1,1.6,1.1,2.5c0,1-0.4,1.8-1.1,2.5C25.8,38,25,38.4,24,38.4z M24,27.6c-1,0-1.8-0.4-2.5-1.1S20.4,25,20.4,24 c0-1,0.4-1.8,1.1-2.5c0.7-0.7,1.6-1.1,2.5-1.1s1.8,0.4,2.5,1.1c0.7,0.7,1.1,1.6,1.1,2.5c0,1-0.4,1.8-1.1,2.5 C25.8,27.2,25,27.6,24,27.6z M24,16.8c-1,0-1.8-0.4-2.5-1.1c-0.7-0.7-1.1-1.6-1.1-2.5s0.4-1.8,1.1-2.5S23,9.6,24,9.6 s1.8,0.4,2.5,1.1c0.7,0.7,1.1,1.6,1.1,2.5s-0.4,1.8-1.1,2.5C25.8,16.4,25,16.8,24,16.8z"/> </symbol><symbol id="notifications" xmlns="http://www.w3.org/2000/svg"> <path d="M11,35.4v-3.2h3.2V20.8c0-2.2,0.7-4.2,2-6s3.1-2.9,5.3-3.4v-1.1c0-0.7,0.2-1.3,0.7-1.7s1-0.7,1.7-0.7s1.3,0.2,1.7,0.7 c0.5,0.5,0.7,1,0.7,1.7v1.1c2.2,0.5,3.9,1.7,5.3,3.4c1.4,1.7,2,3.7,2,6v11.4H37v3.2H11z M24,40.2c-0.9,0-1.7-0.3-2.3-1 c-0.6-0.6-1-1.4-1-2.3h6.5c0,0.9-0.3,1.7-1,2.3C25.7,39.9,24.9,40.2,24,40.2z"/> </symbol><symbol id="pause" xmlns="http://www.w3.org/2000/svg"> <g> <path d="M32.6,39.4L32.6,39.4c-2.1,0-3.8-1.7-3.8-3.8V12.4c0-2.1,1.7-3.8,3.8-3.8h0c2.1,0,3.8,1.7,3.8,3.8v23.2 C36.4,37.7,34.7,39.4,32.6,39.4z"/> <path d="M15.4,39.4L15.4,39.4c-2.1,0-3.8-1.7-3.8-3.8V12.4c0-2.1,1.7-3.8,3.8-3.8h0c2.1,0,3.8,1.7,3.8,3.8v23.2 C19.2,37.7,17.5,39.4,15.4,39.4z"/> </g> </symbol><symbol id="play" xmlns="http://www.w3.org/2000/svg"> <path d="M10.3,38.8V8.6c0-0.8,0.3-1.5,0.9-2.1c0.6-0.6,1.3-0.8,2-0.8c0.2,0,0.5,0,0.8,0.1c0.3,0.1,0.5,0.2,0.8,0.3l23.8,15.1 c0.4,0.3,0.8,0.7,1,1.1c0.2,0.4,0.3,0.9,0.3,1.4s-0.1,0.9-0.3,1.4c-0.2,0.4-0.5,0.8-1,1.1L14.8,41.3c-0.2,0.1-0.5,0.3-0.8,0.3 c-0.3,0.1-0.5,0.1-0.8,0.1c-0.8,0-1.5-0.3-2-0.8C10.6,40.3,10.3,39.6,10.3,38.8z"/> </symbol><symbol id="search" xmlns="http://www.w3.org/2000/svg"><path d="M39.8 41.95 26.65 28.8q-1.5 1.3-3.5 2.025-2 .725-4.25.725-5.4 0-9.15-3.75T6 18.75q0-5.3 3.75-9.05 3.75-3.75 9.1-3.75 5.3 0 9.025 3.75 3.725 3.75 3.725 9.05 0 2.15-.7 4.15-.7 2-2.1 3.75L42 39.75Zm-20.95-13.4q4.05 0 6.9-2.875Q28.6 22.8 28.6 18.75t-2.85-6.925Q22.9 8.95 18.85 8.95q-4.1 0-6.975 2.875T9 18.75q0 4.05 2.875 6.925t6.975 2.875Z"/></symbol><symbol id="settings" xmlns="http://www.w3.org/2000/svg"> <path d="M19,41.9l-0.7-5.7c-0.4-0.1-0.8-0.3-1.1-0.5c-0.3-0.2-0.7-0.4-1-0.7l-5.3,2.2L6,28.7l4.6-3.5c0-0.2,0-0.4,0-0.6v-1.2 c0-0.2,0-0.4,0-0.6L6,19.3l4.9-8.5l5.3,2.2c0.3-0.2,0.7-0.5,1-0.7s0.7-0.4,1.1-0.5L19,6.1h9.8l0.7,5.7c0.4,0.1,0.8,0.3,1.1,0.5 s0.7,0.4,1,0.7l5.3-2.2l4.9,8.5l-4.6,3.5c0,0.2,0,0.4,0,0.6v1.2c0,0.2,0,0.4-0.1,0.6l4.6,3.5L37,37.2l-5.3-2.2 c-0.3,0.2-0.7,0.5-1,0.7c-0.4,0.2-0.7,0.4-1.1,0.5l-0.7,5.7H19z M24.1,30.3c1.7,0,3.2-0.6,4.4-1.8s1.8-2.7,1.8-4.4 c0-1.7-0.6-3.2-1.8-4.4s-2.7-1.8-4.4-1.8c-1.8,0-3.2,0.6-4.4,1.8c-1.2,1.2-1.8,2.7-1.8,4.4c0,1.7,0.6,3.2,1.8,4.4 C20.8,29.6,22.3,30.3,24.1,30.3z"/> </symbol><symbol id="skip_back" xmlns="http://www.w3.org/2000/svg"> <path d="M17.2,28.4L38,40.5c2.2,1.3,5-0.3,5-2.9V13.4c0-2.6-2.8-4.2-5-2.9L17.2,22.6C14.9,23.9,14.9,27.1,17.2,28.4z"/> <path d="M9.4,10.1L9.4,10.1c2.1,0,3.8,1.7,3.8,3.8v23.2c0,2.1-1.7,3.8-3.8,3.8h0c-2.1,0-3.8-1.7-3.8-3.8V13.9 C5.5,11.8,7.2,10.1,9.4,10.1z"/> </symbol><symbol id="skip_next" xmlns="http://www.w3.org/2000/svg"> <path d="M31.4,22.6L10.5,10.5c-2.2-1.3-5,0.3-5,2.9v24.2c0,2.6,2.8,4.2,5,2.9l20.9-12.1C33.6,27.1,33.6,23.9,31.4,22.6z"/> <path d="M39.2,41L39.2,41c-2.1,0-3.8-1.7-3.8-3.8V13.9c0-2.1,1.7-3.8,3.8-3.8h0c2.1,0,3.8,1.7,3.8,3.8v23.2 C43.1,39.2,41.3,41,39.2,41z"/> </symbol><symbol id="warning" xmlns="http://www.w3.org/2000/svg"> <path d="M6.1,39.3L24,8.4l17.9,30.9H6.1z M24,34.4c0.5,0,0.8-0.2,1.2-0.5c0.3-0.3,0.5-0.7,0.5-1.2c0-0.5-0.2-0.8-0.5-1.2 c-0.3-0.3-0.7-0.5-1.2-0.5s-0.8,0.2-1.2,0.5s-0.5,0.7-0.5,1.2c0,0.5,0.2,0.8,0.5,1.2S23.5,34.4,24,34.4z M22.4,29.5h3.3v-8.1h-3.3 V29.5z"/> </symbol><symbol id="_" xmlns="http://www.w3.org/2000/svg"><path d=""/></symbol></svg>