<svg xmlns="http://www.w3.org/2000/svg"><symbol id="add" xmlns="http://www.w3.org/2000/svg"><path d="M22.5 38V25.5H10v-3h12.5V10h3v12.5H38v3H25.5V38Z"/></symbol><symbol id="close" xmlns="http://www.w3.org/2000/svg"><path d="m12.45 37.65-2.1-2.1L21.9 24 10.35 12.45l2.1-2.1L24 21.9l11.55-11.55 2.1 2.1L26.1 24l11.55 11.55-2.1 2.1L24 26.1Z"/></symbol><symbol id="data" xmlns="http://www.w3.org/2000/svg"><path d="M28.5 40v-3h6q1.05 0 1.775-.725Q37 35.55 37 34.5v-5q0-1.85 1.125-3.3 1.125-1.45 2.875-2v-.4q-1.75-.5-2.875-1.975T37 18.5v-5q0-1.05-.725-1.775Q35.55 11 34.5 11h-6V8h6q2.3 0 3.9 1.6t1.6 3.9v5q0 1.05.725 1.775Q41.45 21 42.5 21H44v6h-1.5q-1.05 0-1.775.725Q40 28.45 40 29.5v5q0 2.3-1.6 3.9T34.5 40Zm-15 0q-2.3 0-3.9-1.6T8 34.5v-5q0-1.05-.725-1.775Q6.55 27 5.5 27H4v-6h1.5q1.05 0 1.775-.725Q8 19.55 8 18.5v-5q0-2.3 1.6-3.9T13.5 8h6v3h-6q-1.05 0-1.775.725Q11 12.45 11 13.5v5q0 1.85-1.125 3.325T7 23.8v.4q1.75.55 2.875 2T11 29.5v5q0 1.05.725 1.775Q12.45 37 13.5 37h6v3Z"/></symbol><symbol id="database" xmlns="http://www.w3.org/2000/svg"><path d="M24,22c5.4,0,9.7-0.8,13-2.5c3.3-1.6,5-3.5,5-5.6c0-2.1-1.7-4-5-5.6S29.4,6,24,6s-9.7,0.8-13,2.4S6,11.9,6,14 c0,2.1,1.7,3.9,5,5.6C14.3,21.2,18.6,22,24,22z M24,27c1.7,0,3.5-0.1,5.6-0.4s4-0.7,5.9-1.3c1.8-0.6,3.4-1.4,4.6-2.3 c1.2-0.9,1.9-2.1,1.9-3.4v5c0,1.3-0.6,2.5-1.9,3.4c-1.2,1-2.8,1.7-4.6,2.3c-1.9,0.6-3.8,1-5.9,1.3S25.7,32,24,32 c-1.6,0-3.5-0.1-5.6-0.4s-4.1-0.7-5.9-1.3c-1.9-0.6-3.4-1.4-4.7-2.4c-1.2-1-1.9-2.1-1.9-3.4v-5c0,1.3,0.6,2.4,1.9,3.4 c1.2,0.9,2.8,1.7,4.7,2.4c1.8,0.6,3.8,1.1,5.9,1.3S22.4,27,24,27z M24,37c1.7,0,3.5-0.1,5.6-0.4s4-0.7,5.9-1.3 c1.8-0.6,3.4-1.4,4.6-2.3c1.2-0.9,1.9-2.1,1.9-3.4v5c0,1.3-0.6,2.5-1.9,3.4s-2.8,1.7-4.6,2.3c-1.9,0.6-3.8,1-5.9,1.3S25.7,42,24,42 c-1.6,0-3.5-0.1-5.6-0.4s-4.1-0.7-5.9-1.4c-1.9-0.6-3.4-1.4-4.7-2.3S6,35.8,6,34.5v-5c0,1.3,0.6,2.4,1.9,3.4s2.8,1.7,4.7,2.3 c1.8,0.6,3.8,1.1,5.9,1.4S22.4,37,24,37z"/></symbol><symbol id="done" xmlns="http://www.w3.org/2000/svg"><path d="M18.9 35.7 7.7 24.5l2.15-2.15 9.05 9.05 19.2-19.2 2.15 2.15Z"/></symbol><symbol id="expand-left" xmlns="http://www.w3.org/2000/svg"><path d="M28.05 36 16 23.95 28.05 11.9l2.15 2.15-9.9 9.9 9.9 9.9Z"/></symbol><symbol id="expand-less" xmlns="http://www.w3.org/2000/svg"><path d="M14.15 30.75 12 28.6l12-12 12 11.95-2.15 2.15L24 20.85Z"/></symbol><symbol id="expand-more" xmlns="http://www.w3.org/2000/svg"><path d="m24 30.75-12-12 2.15-2.15L24 26.5l9.85-9.85L36 18.8Z"/></symbol><symbol id="expand-right" xmlns="http://www.w3.org/2000/svg"><path d="m18.75 36-2.15-2.15 9.9-9.9-9.9-9.9 2.15-2.15L30.8 23.95Z"/></symbol><symbol id="node_tree" xmlns="http://www.w3.org/2000/svg"><path d="M33.2,42c-0.8,0-1.5-0.3-2.1-0.9c-0.6-0.6-0.9-1.3-0.9-2.1v-3.2h-4.7c-0.8,0-1.5-0.3-2.1-0.9c-0.6-0.6-0.9-1.3-0.9-2.1V15.2 h-4.6v3.5c0,0.8-0.3,1.5-0.9,2.1s-1.3,0.9-2.1,0.9H7c-0.8,0-1.5-0.3-2.1-0.9S4,19.6,4,18.8V9c0-0.8,0.3-1.5,0.9-2.1S6.2,6,7,6h7.9 c0.8,0,1.5,0.3,2.1,0.9s0.9,1.3,0.9,2.1v3.2h12.4V9c0-0.8,0.3-1.5,0.9-2.1C31.7,6.3,32.4,6,33.2,6H41c0.8,0,1.5,0.3,2.1,0.9 C43.7,7.5,44,8.2,44,9v9.8c0,0.8-0.3,1.5-0.9,2.1c-0.6,0.6-1.3,0.9-2.1,0.9h-7.8c-0.8,0-1.5-0.3-2.1-0.9c-0.6-0.6-0.9-1.3-0.9-2.1 v-3.5h-4.7v17.5h4.7v-3.5c0-0.8,0.3-1.5,0.9-2.1c0.6-0.6,1.3-0.9,2.1-0.9H41c0.8,0,1.5,0.3,2.1,0.9c0.6,0.6,0.9,1.3,0.9,2.1V39 c0,0.8-0.3,1.5-0.9,2.1C42.5,41.7,41.8,42,41,42H33.2z"/></symbol><symbol id="search" xmlns="http://www.w3.org/2000/svg"><path d="M39.8 41.95 26.65 28.8q-1.5 1.3-3.5 2.025-2 .725-4.25.725-5.4 0-9.15-3.75T6 18.75q0-5.3 3.75-9.05 3.75-3.75 9.1-3.75 5.3 0 9.025 3.75 3.725 3.75 3.725 9.05 0 2.15-.7 4.15-.7 2-2.1 3.75L42 39.75Zm-20.95-13.4q4.05 0 6.9-2.875Q28.6 22.8 28.6 18.75t-2.85-6.925Q22.9 8.95 18.85 8.95q-4.1 0-6.975 2.875T9 18.75q0 4.05 2.875 6.925t6.975 2.875Z"/></symbol><symbol id="sort" xmlns="http://www.w3.org/2000/svg"><path d="M6 36v-3h12v3Zm0-10.5v-3h24v3ZM6 15v-3h36v3Z"/></symbol><symbol id="_" xmlns="http://www.w3.org/2000/svg"><path d=""/></symbol><symbol id="account" xmlns="http://www.w3.org/2000/svg"> <path d="M12.9,33.2c1.5-1.2,3.2-2.1,5.1-2.8c1.9-0.7,3.9-1,5.9-1s4,0.3,5.9,1c1.9,0.7,3.6,1.6,5.1,2.8c1-1.2,1.9-2.6,2.5-4.2 c0.6-1.6,0.9-3.2,0.9-5c0-4-1.4-7.4-4.2-10.2S28,9.6,24,9.6s-7.4,1.4-10.2,4.2S9.6,20,9.6,24c0,1.8,0.3,3.4,0.9,5 C11.1,30.5,11.9,31.9,12.9,33.2z M24,25.8c-1.8,0-3.3-0.6-4.5-1.8c-1.2-1.2-1.8-2.7-1.8-4.5s0.6-3.3,1.8-4.5 c1.2-1.2,2.7-1.8,4.5-1.8s3.3,0.6,4.5,1.8c1.2,1.2,1.8,2.7,1.8,4.5s-0.6,3.3-1.8,4.5C27.2,25.2,25.8,25.8,24,25.8z M24,42 c-2.5,0-4.8-0.5-7-1.4s-4.1-2.2-5.7-3.8S8.4,33.2,7.4,31S6,26.5,6,24s0.5-4.8,1.4-7s2.2-4.1,3.8-5.7s3.5-2.9,5.7-3.8S21.5,6,24,6 s4.8,0.5,7,1.4s4.1,2.2,5.7,3.8s2.9,3.5,3.8,5.7s1.4,4.5,1.4,7s-0.5,4.8-1.4,7s-2.2,4.1-3.8,5.7s-3.5,2.9-5.7,3.8S26.5,42,24,42z"/> </symbol><symbol id="arrow_forward_" xmlns="http://www.w3.org/2000/svg"> <path d="M33.3,26H6v-4.5h27.3L20.8,9L24,5.8l18,18l-18,18l-3.2-3.1L33.3,26z"/> </symbol><symbol id="back" xmlns="http://www.w3.org/2000/svg"> <path d="M14.6,26l12.6,12.6L24,41.7l-18-18l18-18L27.2,9L14.6,21.5h27.3V26H14.6z"/> </symbol><symbol id="code" xmlns="http://www.w3.org/2000/svg"> <path d="M16.8,34.6L6,23.8L16.8,13l2.6,2.6l-8.3,8.3l8.2,8.2L16.8,34.6z M31.1,34.6L28.6,32l8.3-8.3l-8.2-8.2l2.5-2.5l10.8,10.8 L31.1,34.6z"/> </symbol><symbol id="dataset" xmlns="http://www.w3.org/2000/svg"> <path d="M14,33.8h8v-8h-8V33.8z M26,33.8h8v-8h-8V33.8z M14,21.8h8v-8h-8V21.8z M26,21.8h8v-8h-8V21.8z M10,41.7 c-1.1,0-2-0.4-2.8-1.2S6,38.8,6,37.7V9.8c0-1.1,0.4-2,1.2-2.8S8.9,5.8,10,5.8h27.9c1.1,0,2,0.4,2.8,1.2c0.8,0.8,1.2,1.7,1.2,2.8 v27.9c0,1.1-0.4,2-1.2,2.8c-0.8,0.8-1.7,1.2-2.8,1.2H10z"/> </symbol><symbol id="delete" xmlns="http://www.w3.org/2000/svg"> <path d="M14,41.7c-1.1,0-2-0.4-2.8-1.2c-0.8-0.8-1.2-1.7-1.2-2.8V11.8H8v-4h10v-2h12v2h10v4h-2v25.9c0,1.1-0.4,2-1.2,2.8 c-0.8,0.8-1.7,1.2-2.8,1.2H14z M18,33.8h4v-18h-4V33.8z M26,33.8h4v-18h-4V33.8z"/> </symbol><symbol id="document" xmlns="http://www.w3.org/2000/svg"> <path d="M16.8,34.6h14.4V31H16.8V34.6z M16.8,27.4h14.4v-3.6H16.8V27.4z M13.2,41.7c-1,0-1.8-0.4-2.5-1.1c-0.7-0.7-1.1-1.5-1.1-2.5 V9.4c0-1,0.4-1.8,1.1-2.5c0.7-0.7,1.5-1.1,2.5-1.1h14.4l10.8,10.8v21.6c0,1-0.4,1.8-1.1,2.5c-0.7,0.7-1.5,1.1-2.5,1.1H13.2z M25.8,18.4h9l-9-9V18.4z"/> </symbol><symbol id="download" xmlns="http://www.w3.org/2000/svg"> <path d="M15,37c-2.5,0-4.6-0.9-6.3-2.6S6,30.6,6,28.1c0-2.1,0.6-4,1.9-5.7c1.3-1.7,3-2.7,5-3.2c0.6-2.2,1.8-4.1,3.5-5.6 c1.7-1.5,3.7-2.4,5.9-2.7v13.2l-2.6-2.5l-2.3,2.3l6.5,6.5l6.5-6.5l-2.3-2.3l-2.6,2.5V11c2.8,0.4,5.1,1.6,7,3.8 c1.9,2.1,2.8,4.6,2.8,7.5c1.9,0.2,3.4,1,4.7,2.4c1.2,1.4,1.9,3,1.9,4.9c0,2-0.7,3.8-2.1,5.2c-1.4,1.4-3.2,2.1-5.2,2.1H15z"/> </symbol><symbol id="edit" xmlns="http://www.w3.org/2000/svg"> <path d="M9,39.2V32L31.2,9.8c0.3-0.3,0.7-0.5,1.1-0.7c0.4-0.2,0.8-0.3,1.3-0.3c0.4,0,0.9,0.1,1.3,0.3c0.4,0.2,0.8,0.4,1.1,0.8 l2.3,2.4c0.3,0.3,0.6,0.7,0.7,1.1c0.2,0.4,0.2,0.8,0.2,1.3c0,0.4-0.1,0.9-0.2,1.3c-0.2,0.4-0.4,0.8-0.7,1.1L16.1,39.2H9z M33.6,16.9 l2.4-2.4l-2.4-2.4l-2.4,2.4L33.6,16.9z"/> </symbol><symbol id="error" xmlns="http://www.w3.org/2000/svg"> <path d="M24.4,33c0.5,0,0.9-0.2,1.3-0.5c0.3-0.3,0.5-0.8,0.5-1.3c0-0.5-0.2-0.9-0.5-1.3s-0.8-0.5-1.3-0.5s-0.9,0.2-1.3,0.5 s-0.5,0.8-0.5,1.3c0,0.5,0.2,0.9,0.5,1.3C23.5,32.8,23.9,33,24.4,33z M22.6,25.8h3.6V15h-3.6V25.8z M24.4,42c-2.5,0-4.8-0.5-7-1.4 s-4.1-2.2-5.7-3.8S8.8,33.2,7.8,31s-1.4-4.5-1.4-7s0.5-4.8,1.4-7s2.2-4.1,3.8-5.7s3.5-2.9,5.7-3.8s4.5-1.4,7-1.4s4.8,0.5,7,1.4 s4.1,2.2,5.7,3.8c1.6,1.6,2.9,3.5,3.8,5.7c0.9,2.2,1.4,4.5,1.4,7S42,28.8,41,31c-0.9,2.2-2.2,4.1-3.8,5.7c-1.6,1.6-3.5,2.9-5.7,3.8 S26.9,42,24.4,42z"/> </symbol><symbol id="eye" xmlns="http://www.w3.org/2000/svg"> <path d="M24.4,31.6c2,0,3.8-0.7,5.2-2.1s2.1-3.2,2.1-5.2s-0.7-3.8-2.1-5.2s-3.2-2.1-5.2-2.1s-3.8,0.7-5.2,2.1s-2.1,3.2-2.1,5.2 s0.7,3.8,2.1,5.2S22.4,31.6,24.4,31.6z M24.4,28.7c-1.2,0-2.3-0.4-3.1-1.3S20,25.5,20,24.3c0-1.2,0.4-2.3,1.3-3.1s1.9-1.3,3.1-1.3 c1.2,0,2.3,0.4,3.1,1.3s1.3,1.9,1.3,3.1c0,1.2-0.4,2.3-1.3,3.1S25.7,28.7,24.4,28.7z M24.4,36.5c-4,0-7.6-1.1-10.9-3.3 S7.9,28,6.4,24.3c1.5-3.7,3.8-6.7,7.1-8.9S20.4,12,24.4,12s7.6,1.1,10.9,3.3s5.6,5.2,7.1,8.9C41,28,38.6,31,35.3,33.2 S28.4,36.5,24.4,36.5z"/> </symbol><symbol id="folder-create" xmlns="http://www.w3.org/2000/svg"> <path d="M28,31.2h3.6v-3.6h3.6V24h-3.6v-3.6H28V24h-3.6v3.6H28V31.2z M10,38.4c-1,0-1.8-0.4-2.5-1.1c-0.7-0.7-1.1-1.6-1.1-2.5V13.2 c0-1,0.4-1.8,1.1-2.5S9,9.6,10,9.6h10.8l3.6,3.6h14.4c1,0,1.8,0.4,2.5,1.1c0.7,0.7,1.1,1.6,1.1,2.5v18c0,1-0.4,1.8-1.1,2.5 c-0.7,0.7-1.6,1.1-2.5,1.1H10z"/> </symbol><symbol id="folder-move" xmlns="http://www.w3.org/2000/svg"> <path d="M10,38.4c-1,0-1.8-0.4-2.5-1.1c-0.7-0.7-1.1-1.6-1.1-2.5V13.2c0-1,0.4-1.8,1.1-2.5S9,9.6,10,9.6h10.8l3.6,3.6h14.4 c1,0,1.8,0.4,2.5,1.1c0.7,0.7,1.1,1.6,1.1,2.5v18c0,1-0.4,1.8-1.1,2.5c-0.7,0.7-1.6,1.1-2.5,1.1H10z M24.8,27.6l-2.9,2.9l2.5,2.5 l7.2-7.2l-7.2-7.2l-2.5,2.5l2.9,2.9h-7.6v3.6H24.8z"/> </symbol><symbol id="folder-open" xmlns="http://www.w3.org/2000/svg"> <path d="M10,38.2c-1,0-1.8-0.3-2.5-1s-1.1-1.5-1.1-2.5V13.2c0-1,0.4-1.8,1.1-2.5c0.7-0.7,1.5-1,2.5-1h10.7l3.6,3.6h14.3 c1,0,1.8,0.3,2.5,1.1s1,1.5,1,2.5H10v17.9l4.3-14.3h30.6l-4.6,15.3c-0.2,0.8-0.7,1.4-1.3,1.9c-0.6,0.5-1.3,0.7-2.1,0.7H10z"/> </symbol><symbol id="folder" xmlns="http://www.w3.org/2000/svg"> <path d="M10,38.2c-1,0-1.8-0.4-2.5-1.1s-1.1-1.5-1.1-2.5V13.1c0-1,0.4-1.8,1.1-2.5C8.2,9.9,9,9.5,10,9.5h10.8l3.6,3.6h14.3 c1,0,1.8,0.4,2.5,1.1c0.7,0.7,1.1,1.5,1.1,2.5v17.9c0,1-0.4,1.8-1.1,2.5c-0.7,0.7-1.5,1.1-2.5,1.1H10z"/> </symbol><symbol id="gallery" xmlns="http://www.w3.org/2000/svg"> <path d="M9.7,36.9c-0.9,0-1.7-0.3-2.3-1s-1-1.4-1-2.3V17.4c0-0.9,0.3-1.7,1-2.3c0.6-0.6,1.4-1,2.3-1H26c0.9,0,1.7,0.3,2.3,1 c0.6,0.6,1,1.4,1,2.3v16.3c0,0.9-0.3,1.7-1,2.3c-0.6,0.6-1.4,1-2.3,1H9.7z M34.1,23.9c-0.5,0-0.8-0.2-1.2-0.5 c-0.3-0.3-0.5-0.7-0.5-1.2v-6.5c0-0.5,0.2-0.8,0.5-1.2c0.3-0.3,0.7-0.5,1.2-0.5h6.5c0.5,0,0.8,0.2,1.2,0.5c0.3,0.3,0.5,0.7,0.5,1.2 v6.5c0,0.5-0.2,0.8-0.5,1.2c-0.3,0.3-0.7,0.5-1.2,0.5H34.1z M11.3,30.4h13l-4.3-5.7L17,28.8l-2.2-3L11.3,30.4z M34.1,36.9 c-0.5,0-0.8-0.2-1.2-0.5c-0.3-0.3-0.5-0.7-0.5-1.2v-6.5c0-0.5,0.2-0.8,0.5-1.2c0.3-0.3,0.7-0.5,1.2-0.5h6.5c0.5,0,0.8,0.2,1.2,0.5 c0.3,0.3,0.5,0.7,0.5,1.2v6.5c0,0.5-0.2,0.8-0.5,1.2c-0.3,0.3-0.7,0.5-1.2,0.5H34.1z"/> </symbol><symbol id="grid" xmlns="http://www.w3.org/2000/svg"> <path d="M10.4,41.9h5.3v-9.3H6.4V38c0,1.1,0.4,2,1.2,2.8S9.3,41.9,10.4,41.9z M19.7,41.9H29v-9.3h-9.3V41.9z M33,41.9h5.3 c1.1,0,2-0.4,2.8-1.2c0.8-0.8,1.2-1.7,1.2-2.8v-5.3H33V41.9z M6.4,28.6h9.3v-9.3H6.4V28.6z M19.7,28.6H29v-9.3h-9.3V28.6z M33,28.6 h9.3v-9.3H33V28.6z M6.4,15.4h9.3V6.1h-5.3c-1.1,0-2,0.4-2.8,1.2S6.4,9,6.4,10V15.4z M19.7,15.4H29V6.1h-9.3V15.4z M33,15.4h9.3V10 c0-1.1-0.4-2-1.2-2.8c-0.8-0.8-1.7-1.2-2.8-1.2H33V15.4z"/> </symbol><symbol id="hide" xmlns="http://www.w3.org/2000/svg"> <path d="M37.1,40.4l-6.8-6.8c-1,0.3-1.9,0.5-2.9,0.7c-1,0.1-2,0.2-3,0.2c-4.1,0-7.8-1.1-11-3.4s-5.5-5.2-7-8.8 c0.6-1.4,1.3-2.8,2.2-4s1.9-2.3,3-3.3l-4.5-4.6l2.3-2.3l30,30L37.1,40.4z M24.4,29.7c0.3,0,0.6,0,0.8,0c0.3,0,0.5-0.1,0.8-0.2 l-8.8-8.8c-0.1,0.3-0.1,0.6-0.2,0.8s0,0.5,0,0.8c0,2,0.7,3.8,2.1,5.2S22.3,29.7,24.4,29.7z M36.3,30.4l-5.2-5.1 c0.2-0.5,0.3-0.9,0.4-1.4c0.1-0.5,0.2-1,0.2-1.5c0-2-0.7-3.8-2.1-5.2c-1.4-1.4-3.2-2.1-5.2-2.1c-0.5,0-1.1,0.1-1.5,0.2 c-0.5,0.1-0.9,0.3-1.4,0.5l-4.2-4.2c1.1-0.5,2.3-0.8,3.4-1s2.4-0.3,3.7-0.3c4.1,0,7.8,1.1,11,3.4s5.5,5.2,7,8.8 c-0.6,1.6-1.4,3.1-2.5,4.5C38.8,28.2,37.6,29.4,36.3,30.4z M28.7,22.9L23.8,18c0.8-0.1,1.5-0.1,2.1,0.2c0.6,0.3,1.2,0.6,1.7,1.1 s0.8,1.1,1,1.7C28.8,21.6,28.8,22.3,28.7,22.9z"/> </symbol><symbol id="list-view" xmlns="http://www.w3.org/2000/svg"> <path d="M18.6,38.4h19.8c1,0,1.8-0.4,2.5-1.1c0.7-0.7,1.1-1.6,1.1-2.5v-3.6H18.6V38.4z M6,16.8h9V9.6H9.6c-1,0-1.8,0.4-2.5,1.1 S6,12.2,6,13.2V16.8z M6,27.6h9v-7.2H6V27.6z M9.6,38.4H15v-7.2H6v3.6c0,1,0.4,1.8,1.1,2.5C7.8,38,8.6,38.4,9.6,38.4z M18.6,27.6H42 v-7.2H18.6V27.6z M18.6,16.8H42v-3.6c0-1-0.4-1.8-1.1-2.5c-0.7-0.7-1.6-1.1-2.5-1.1H18.6V16.8z"/> </symbol><symbol id="logout" xmlns="http://www.w3.org/2000/svg"> <path d="M10,42c-1.1,0-2-0.4-2.8-1.2S6,39.1,6,38V10c0-1.1,0.4-2,1.2-2.8S8.9,6,10,6h14v4H10v28h14v4H10z M32,34l-2.7-2.9l5.1-5.1 H18v-4h16.3l-5.1-5.1L32,14l10,10L32,34z"/> </symbol><symbol id="more" xmlns="http://www.w3.org/2000/svg"> <path d="M24,38.4c-1,0-1.8-0.4-2.5-1.1c-0.7-0.7-1.1-1.6-1.1-2.5c0-1,0.4-1.8,1.1-2.5c0.7-0.7,1.6-1.1,2.5-1.1s1.8,0.4,2.5,1.1 c0.7,0.7,1.1,1.6,1.1,2.5c0,1-0.4,1.8-1.1,2.5C25.8,38,25,38.4,24,38.4z M24,27.6c-1,0-1.8-0.4-2.5-1.1S20.4,25,20.4,24 c0-1,0.4-1.8,1.1-2.5c0.7-0.7,1.6-1.1,2.5-1.1s1.8,0.4,2.5,1.1c0.7,0.7,1.1,1.6,1.1,2.5c0,1-0.4,1.8-1.1,2.5 C25.8,27.2,25,27.6,24,27.6z M24,16.8c-1,0-1.8-0.4-2.5-1.1c-0.7-0.7-1.1-1.6-1.1-2.5s0.4-1.8,1.1-2.5S23,9.6,24,9.6 s1.8,0.4,2.5,1.1c0.7,0.7,1.1,1.6,1.1,2.5s-0.4,1.8-1.1,2.5C25.8,16.4,25,16.8,24,16.8z"/> </symbol><symbol id="notifications" xmlns="http://www.w3.org/2000/svg"> <path d="M11,35.4v-3.2h3.2V20.8c0-2.2,0.7-4.2,2-6s3.1-2.9,5.3-3.4v-1.1c0-0.7,0.2-1.3,0.7-1.7s1-0.7,1.7-0.7s1.3,0.2,1.7,0.7 c0.5,0.5,0.7,1,0.7,1.7v1.1c2.2,0.5,3.9,1.7,5.3,3.4c1.4,1.7,2,3.7,2,6v11.4H37v3.2H11z M24,40.2c-0.9,0-1.7-0.3-2.3-1 c-0.6-0.6-1-1.4-1-2.3h6.5c0,0.9-0.3,1.7-1,2.3C25.7,39.9,24.9,40.2,24,40.2z"/> </symbol><symbol id="picture" xmlns="http://www.w3.org/2000/svg"> <path d="M10,42c-1.1,0-2-0.4-2.8-1.2S6,39.1,6,38V10c0-1.1,0.4-2,1.2-2.8S8.9,6,10,6H38c1.1,0,2,0.4,2.8,1.2S42,8.9,42,10V38 c0,1.1-0.4,2-1.2,2.8S39.1,42,38,42H10z M12,34H36l-7.5-10l-6,8L18,26L12,34z"/> </symbol><symbol id="settings" xmlns="http://www.w3.org/2000/svg"> <path d="M19,41.9l-0.7-5.7c-0.4-0.1-0.8-0.3-1.1-0.5c-0.3-0.2-0.7-0.4-1-0.7l-5.3,2.2L6,28.7l4.6-3.5c0-0.2,0-0.4,0-0.6v-1.2 c0-0.2,0-0.4,0-0.6L6,19.3l4.9-8.5l5.3,2.2c0.3-0.2,0.7-0.5,1-0.7s0.7-0.4,1.1-0.5L19,6.1h9.8l0.7,5.7c0.4,0.1,0.8,0.3,1.1,0.5 s0.7,0.4,1,0.7l5.3-2.2l4.9,8.5l-4.6,3.5c0,0.2,0,0.4,0,0.6v1.2c0,0.2,0,0.4-0.1,0.6l4.6,3.5L37,37.2l-5.3-2.2 c-0.3,0.2-0.7,0.5-1,0.7c-0.4,0.2-0.7,0.4-1.1,0.5l-0.7,5.7H19z M24.1,30.3c1.7,0,3.2-0.6,4.4-1.8s1.8-2.7,1.8-4.4 c0-1.7-0.6-3.2-1.8-4.4s-2.7-1.8-4.4-1.8c-1.8,0-3.2,0.6-4.4,1.8c-1.2,1.2-1.8,2.7-1.8,4.4c0,1.7,0.6,3.2,1.8,4.4 C20.8,29.6,22.3,30.3,24.1,30.3z"/> </symbol><symbol id="table" xmlns="http://www.w3.org/2000/svg"> <path d="M6,42V6H42V42H6z M10,18H38v-8H10V18z M20.7,28h6.7v-6h-6.7V28z M20.7,38h6.7v-6h-6.7V38z M10,28h6.6v-6H10V28z M31.3,28H38 v-6h-6.6V28z M10,38h6.6v-6H10V38z M31.3,38H38v-6h-6.6V38z"/> </symbol><symbol id="upload" xmlns="http://www.w3.org/2000/svg"> <path d="M22.4,37.1H15c-2.5,0-4.6-0.9-6.4-2.6S6,30.7,6,28.2c0-2.1,0.6-4,1.9-5.7s3-2.7,5-3.2c0.7-2.5,2-4.5,4.1-6.1s4.4-2.3,7-2.3 c3.2,0,5.9,1.1,8.1,3.3s3.3,4.9,3.3,8.1c1.9,0.2,3.4,1,4.7,2.4c1.2,1.4,1.9,3,1.9,4.9c0,2-0.7,3.8-2.1,5.2c-1.4,1.4-3.2,2.1-5.2,2.1 h-9V25.4l2.6,2.5l2.3-2.3L24,19.1l-6.5,6.5l2.3,2.3l2.6-2.5V37.1z"/> </symbol><symbol id="warning" xmlns="http://www.w3.org/2000/svg"> <path d="M6.1,39.3L24,8.4l17.9,30.9H6.1z M24,34.4c0.5,0,0.8-0.2,1.2-0.5c0.3-0.3,0.5-0.7,0.5-1.2c0-0.5-0.2-0.8-0.5-1.2 c-0.3-0.3-0.7-0.5-1.2-0.5s-0.8,0.2-1.2,0.5s-0.5,0.7-0.5,1.2c0,0.5,0.2,0.8,0.5,1.2S23.5,34.4,24,34.4z M22.4,29.5h3.3v-8.1h-3.3 V29.5z"/> </symbol><symbol id="info" xmlns="http://www.w3.org/2000/svg"><path d="M12 0c-6.627 0-12 5.373-12 12s5.373 12 12 12 12-5.373 12-12-5.373-12-12-12zm1 18h-2v-6h-2v-2h4v8zm-1-9.75c-.69 0-1.25-.56-1.25-1.25s.56-1.25 1.25-1.25 1.25.56 1.25 1.25-.56 1.25-1.25 1.25z"/></symbol><symbol id="successbadge" xmlns="http://www.w3.org/2000/svg"><path d="M12 0c-6.627 0-12 5.373-12 12s5.373 12 12 12 12-5.373 12-12-5.373-12-12-12zm-1.25 16.518l-4.5-4.319 1.396-1.435 3.078 2.937 6.105-6.218 1.421 1.409-7.5 7.626z"/></symbol><symbol id="exclamation" xmlns="http://www.w3.org/2000/svg"><path d="M12 0c-6.627 0-12 5.373-12 12s5.373 12 12 12 12-5.373 12-12-5.373-12-12-12zm-1 5h2v10h-2v-10zm1 14.25c-.69 0-1.25-.56-1.25-1.25s.56-1.25 1.25-1.25 1.25.56 1.25 1.25-.56 1.25-1.25 1.25z"/></symbol></svg>